<svg width="24" height="24" viewBox="0 0 24 24" fill="none" xmlns="http://www.w3.org/2000/svg">
<path fill-rule="evenodd" clip-rule="evenodd" d="M2.73553 1.81244H0V0.47998H3.82633L4.66462 4.64116H24L22.0186 13.4157H6.43231L7.14727 16.9646H21.4861V18.2971H6.05647L2.73553 1.81244ZM6.16388 12.0833H20.9535L22.3331 5.97362H4.93305L6.16388 12.0833Z" fill="#002051"/>
<path d="M9.92281 21.8321C9.92281 22.7381 9.18835 23.4725 8.28235 23.4725C7.37635 23.4725 6.64189 22.7381 6.64189 21.8321C6.64189 20.9261 7.37635 20.1916 8.28235 20.1916C9.18835 20.1916 9.92281 20.9261 9.92281 21.8321Z" fill="#002051"/>
<path d="M21.4461 21.8321C21.4461 22.7381 20.7116 23.4725 19.8056 23.4725C18.8996 23.4725 18.1651 22.7381 18.1651 21.8321C18.1651 20.9261 18.8996 20.1916 19.8056 20.1916C20.7116 20.1916 21.4461 20.9261 21.4461 21.8321Z" fill="#002051"/>
</svg>