<svg width="136" height="23" viewBox="0 0 136 23" fill="none" xmlns="http://www.w3.org/2000/svg">
<path d="M35.0344 0.293701L34.7328 0.983441L21.2427 16.7587H14.8747L15.2723 6.18039L6.4023 16.7587H0L0.59636 0.983441L0.891112 0.293701H5.44264L4.71604 12.3266L14.7788 0.293701H19.8924L19.4262 12.2924L29.3587 0.293701H35.0344Z" fill="#DE2F46"/>
<path d="M51.0951 0.293701L49.3472 4.26824H45.9472C43.836 4.26824 42.0469 4.83506 40.5731 5.97552L35.7543 16.7518H30.8052L38.2014 0.293701H42.3554L42.0263 1.63903C43.5892 0.737593 45.3029 0.293701 47.1742 0.293701H51.0951Z" fill="#DE2F46"/>
<path d="M74.1668 0.39502V16.7644H70.4721L70.3419 14.9888C68.827 16.3888 66.8665 17.1127 64.4674 17.1605C61.5884 17.1605 59.4018 16.4366 57.9211 14.9888C56.4337 13.541 55.6934 11.4172 55.6934 8.61043V0.39502H59.6485V8.61043C59.6485 10.2084 60.0941 11.4309 60.9852 12.2777C61.8763 13.1245 63.165 13.541 64.8581 13.541C66.0234 13.541 67.0859 13.2747 68.0387 12.7352C68.9983 12.1957 69.7181 11.4718 70.1979 10.5499V0.39502H74.1668Z" fill="#002051"/>
<path d="M102.669 0C105.417 0 107.515 0.730714 108.968 2.18531C110.421 3.63991 111.148 5.74328 111.148 8.48175V16.7655H107.186V8.48175C107.186 6.92471 106.775 5.72962 105.952 4.88281C105.129 4.036 103.964 3.61943 102.47 3.61943C101.284 3.61943 100.208 3.89942 99.255 4.45941C98.2953 5.01939 97.5687 5.77059 97.0615 6.71301C97.13 7.25934 97.1575 7.85347 97.1575 8.48858V16.7723H93.1954V8.48175C93.1954 6.92471 92.791 5.72962 91.9753 4.88281C91.1596 4.036 90.008 3.61943 88.5137 3.61943C87.3484 3.61943 86.2928 3.89259 85.3468 4.43892C84.4009 4.98525 83.688 5.72279 83.2013 6.63789V16.7586H79.2393V0.396088H82.9339L83.0642 2.13751C84.6271 0.710227 86.5738 0 88.9044 0C92.0918 0 94.3813 1.01754 95.766 3.05944C96.5817 2.04873 97.5756 1.2907 98.7546 0.778518C99.9336 0.259506 101.236 0 102.669 0Z" fill="#002051"/>
<path d="M131.232 8.34517C131.232 6.87691 130.718 5.72279 129.683 4.87598C128.648 4.02917 127.229 3.6126 125.426 3.6126C124.24 3.6126 123.157 3.81064 122.177 4.20673C121.197 4.60282 120.436 5.13549 119.888 5.8184V11.2749C120.436 11.9783 121.204 12.5314 122.198 12.9343C123.192 13.3372 124.268 13.5421 125.433 13.5421C127.256 13.5421 128.682 13.1187 129.704 12.2787C130.725 11.4319 131.239 10.271 131.239 8.7754V8.34517H131.232ZM125.495 0C127.476 0 129.203 0.341455 130.691 1.01754C132.178 1.69362 133.316 2.66335 134.118 3.92674C134.92 5.18329 135.324 6.65838 135.324 8.34517V8.7754C135.324 10.4622 134.92 11.9373 134.118 13.1938C133.316 14.4504 132.171 15.4269 130.691 16.1167C129.203 16.8064 127.476 17.1547 125.495 17.1547C123.294 17.1547 121.423 16.5742 119.888 15.4133V22.3448H115.932V0.396088H119.627L119.723 1.90532C121.348 0.635107 123.274 0 125.495 0Z" fill="#002051"/>
</svg>
