<svg width="17" height="16" viewBox="0 0 17 16" fill="none" xmlns="http://www.w3.org/2000/svg">
<path fill-rule="evenodd" clip-rule="evenodd" d="M6.47068 11.0614C9.28218 11.0614 11.5614 8.78218 11.5614 5.97068C11.5614 3.15917 9.28218 0.88 6.47068 0.88C3.65917 0.88 1.38 3.15917 1.38 5.97068C1.38 8.78218 3.65917 11.0614 6.47068 11.0614ZM6.47068 11.9414C9.76819 11.9414 12.4414 9.26819 12.4414 5.97068C12.4414 2.67316 9.76819 0 6.47068 0C3.17316 0 0.5 2.67316 0.5 5.97068C0.5 9.26819 3.17316 11.9414 6.47068 11.9414Z" fill="#002051"/>
<path fill-rule="evenodd" clip-rule="evenodd" d="M10.8831 9.70507L16.4911 15.313L15.8688 15.9353L10.2609 10.3273L10.8831 9.70507Z" fill="#002051"/>
</svg>