<svg width="18" height="24" viewBox="0 0 18 24" fill="none" xmlns="http://www.w3.org/2000/svg">
<path fill-rule="evenodd" clip-rule="evenodd" d="M1.66532 13.8369H16.3412L17.4066 23.8609L16.0978 24L15.1575 15.1531H2.84903L1.90878 24L0.599976 23.8609L1.66532 13.8369Z" fill="#002051"/>
<path fill-rule="evenodd" clip-rule="evenodd" d="M9.04886 10.6263C11.6198 10.6263 13.7039 8.54212 13.7039 5.97122C13.7039 3.40031 11.6198 1.31617 9.04886 1.31617C6.47796 1.31617 4.39382 3.40031 4.39382 5.97122C4.39382 8.54212 6.47796 10.6263 9.04886 10.6263ZM9.04886 11.9424C12.3467 11.9424 15.0201 9.26903 15.0201 5.97122C15.0201 2.6734 12.3467 0 9.04886 0C5.75105 0 3.07765 2.6734 3.07765 5.97122C3.07765 9.26903 5.75105 11.9424 9.04886 11.9424Z" fill="#002051"/>
</svg>